<mxfile host="Electron" agent="Mozilla/5.0 (Windows NT 10.0; Win64; x64) AppleWebKit/537.36 (KHTML, like Gecko) draw.io/27.0.9 Chrome/134.0.6998.205 Electron/35.4.0 Safari/537.36" version="27.0.9">
  <diagram name="Сторінка-1" id="wp6F2w-rDBs565jpD0-R">
    <mxGraphModel dx="1828" dy="995" grid="1" gridSize="10" guides="1" tooltips="1" connect="1" arrows="1" fold="1" page="0" pageScale="1" pageWidth="827" pageHeight="1169" math="0" shadow="0">
      <root>
        <mxCell id="0" />
        <mxCell id="1" parent="0" />
        <mxCell id="9Kl_Pf7hAqppmfp9x2_W-120" value="" style="shape=ext;double=1;rounded=1;whiteSpace=wrap;html=1;fillColor=#f5f5f5;strokeColor=#3C3C3C;gradientColor=#F5F5F5;" parent="1" vertex="1">
          <mxGeometry x="-470" y="-120" width="920" height="530" as="geometry" />
        </mxCell>
        <mxCell id="yKeepJAEzD9BQughmzWE-1" value="" style="rounded=1;whiteSpace=wrap;html=1;strokeColor=light-dark(#fff9e1, #996500);" parent="1" vertex="1">
          <mxGeometry x="-270" y="-100" width="685" height="460" as="geometry" />
        </mxCell>
        <mxCell id="yKeepJAEzD9BQughmzWE-4" value="&lt;font style=&quot;font-size: 14px;&quot;&gt;&lt;b&gt;Bronze&lt;/b&gt;&lt;/font&gt;" style="text;html=1;align=center;verticalAlign=middle;whiteSpace=wrap;rounded=0;fillColor=#ffe6cc;strokeColor=#d79b00;" parent="1" vertex="1">
          <mxGeometry x="-230" y="-20" width="160" height="30" as="geometry" />
        </mxCell>
        <mxCell id="yKeepJAEzD9BQughmzWE-6" value="&lt;div&gt;&lt;font style=&quot;&quot;&gt;&lt;br&gt;&lt;/font&gt;&lt;/div&gt;" style="rounded=0;whiteSpace=wrap;html=1;" parent="1" vertex="1">
          <mxGeometry x="-230" y="25" width="160" height="315" as="geometry" />
        </mxCell>
        <mxCell id="yKeepJAEzD9BQughmzWE-24" value="&lt;font style=&quot;font-size: 14px;&quot;&gt;&lt;b&gt;Silver&lt;/b&gt;&lt;/font&gt;" style="text;html=1;align=center;verticalAlign=middle;whiteSpace=wrap;rounded=0;fillColor=#f5f5f5;strokeColor=#666666;fontColor=#333333;" parent="1" vertex="1">
          <mxGeometry x="-20" y="-20" width="160" height="30" as="geometry" />
        </mxCell>
        <mxCell id="yKeepJAEzD9BQughmzWE-25" value="" style="rounded=0;whiteSpace=wrap;html=1;" parent="1" vertex="1">
          <mxGeometry x="-20" y="20" width="160" height="320" as="geometry" />
        </mxCell>
        <mxCell id="yKeepJAEzD9BQughmzWE-34" value="&lt;font style=&quot;font-size: 14px;&quot;&gt;&lt;b&gt;Gold&lt;/b&gt;&lt;/font&gt;" style="text;html=1;align=center;verticalAlign=middle;whiteSpace=wrap;rounded=0;fillColor=#fff2cc;strokeColor=#d6b656;" parent="1" vertex="1">
          <mxGeometry x="190" y="-20" width="160" height="30" as="geometry" />
        </mxCell>
        <mxCell id="yKeepJAEzD9BQughmzWE-35" value="" style="rounded=0;whiteSpace=wrap;html=1;" parent="1" vertex="1">
          <mxGeometry x="190" y="20" width="160" height="320" as="geometry" />
        </mxCell>
        <mxCell id="yKeepJAEzD9BQughmzWE-51" value="&lt;b&gt;&lt;font face=&quot;Helvetica&quot; style=&quot;font-size: 16px;&quot;&gt;Hospital Warehouse Analysys&lt;/font&gt;&lt;/b&gt;" style="text;html=1;align=center;verticalAlign=middle;whiteSpace=wrap;rounded=0;" parent="1" vertex="1">
          <mxGeometry x="-80" y="-90" width="260" height="30" as="geometry" />
        </mxCell>
        <mxCell id="9Kl_Pf7hAqppmfp9x2_W-1" value="&lt;span style=&quot;font-size: 14px;&quot;&gt;&lt;b&gt;Sources&lt;/b&gt;&lt;/span&gt;" style="text;html=1;align=center;verticalAlign=middle;whiteSpace=wrap;rounded=0;fillColor=default;" parent="1" vertex="1">
          <mxGeometry x="-440" y="-20" width="160" height="30" as="geometry" />
        </mxCell>
        <mxCell id="9Kl_Pf7hAqppmfp9x2_W-2" value="" style="rounded=0;whiteSpace=wrap;html=1;" parent="1" vertex="1">
          <mxGeometry x="-440" y="25" width="160" height="310" as="geometry" />
        </mxCell>
        <mxCell id="9Kl_Pf7hAqppmfp9x2_W-4" value="&lt;b&gt;&lt;font style=&quot;font-size: 10px;&quot;&gt;encounters&lt;/font&gt;&lt;/b&gt;" style="text;html=1;align=left;verticalAlign=middle;whiteSpace=wrap;rounded=0;" parent="1" vertex="1">
          <mxGeometry x="-393" y="52" width="80" height="30" as="geometry" />
        </mxCell>
        <mxCell id="9Kl_Pf7hAqppmfp9x2_W-6" value="&lt;b&gt;&lt;font style=&quot;font-size: 10px;&quot;&gt;patients&lt;/font&gt;&lt;/b&gt;" style="text;html=1;align=left;verticalAlign=middle;whiteSpace=wrap;rounded=0;" parent="1" vertex="1">
          <mxGeometry x="-393" y="92" width="80" height="30" as="geometry" />
        </mxCell>
        <mxCell id="9Kl_Pf7hAqppmfp9x2_W-8" value="&lt;b&gt;&lt;font style=&quot;font-size: 10px;&quot;&gt;payers&lt;/font&gt;&lt;/b&gt;" style="text;html=1;align=left;verticalAlign=middle;whiteSpace=wrap;rounded=0;" parent="1" vertex="1">
          <mxGeometry x="-393" y="127" width="80" height="30" as="geometry" />
        </mxCell>
        <mxCell id="9Kl_Pf7hAqppmfp9x2_W-9" value="" style="shape=image;html=1;verticalAlign=top;verticalLabelPosition=bottom;labelBackgroundColor=#ffffff;imageAspect=0;aspect=fixed;image=https://cdn2.iconfinder.com/data/icons/simple-files/128/csv1.png" parent="1" vertex="1">
          <mxGeometry x="-418" y="172" width="20" height="20" as="geometry" />
        </mxCell>
        <mxCell id="9Kl_Pf7hAqppmfp9x2_W-10" value="&lt;b&gt;&lt;font style=&quot;font-size: 10px;&quot;&gt;procedures&lt;br&gt;tables&lt;/font&gt;&lt;/b&gt;" style="text;html=1;align=left;verticalAlign=middle;whiteSpace=wrap;rounded=0;" parent="1" vertex="1">
          <mxGeometry x="-393" y="164.5" width="90" height="35" as="geometry" />
        </mxCell>
        <mxCell id="9Kl_Pf7hAqppmfp9x2_W-83" value="" style="shape=image;html=1;verticalAlign=top;verticalLabelPosition=bottom;labelBackgroundColor=#ffffff;imageAspect=0;aspect=fixed;image=https://cdn2.iconfinder.com/data/icons/simple-files/128/csv1.png" parent="1" vertex="1">
          <mxGeometry x="-418" y="137" width="20" height="20" as="geometry" />
        </mxCell>
        <mxCell id="9Kl_Pf7hAqppmfp9x2_W-84" value="" style="shape=image;html=1;verticalAlign=top;verticalLabelPosition=bottom;labelBackgroundColor=#ffffff;imageAspect=0;aspect=fixed;image=https://cdn2.iconfinder.com/data/icons/simple-files/128/csv1.png" parent="1" vertex="1">
          <mxGeometry x="-418" y="97" width="20" height="20" as="geometry" />
        </mxCell>
        <mxCell id="9Kl_Pf7hAqppmfp9x2_W-85" value="" style="shape=image;html=1;verticalAlign=top;verticalLabelPosition=bottom;labelBackgroundColor=#ffffff;imageAspect=0;aspect=fixed;image=https://cdn2.iconfinder.com/data/icons/simple-files/128/csv1.png" parent="1" vertex="1">
          <mxGeometry x="-418" y="57" width="20" height="20" as="geometry" />
        </mxCell>
        <mxCell id="9Kl_Pf7hAqppmfp9x2_W-99" value="&lt;font style=&quot;font-size: 9px;&quot;&gt;&lt;br&gt;&lt;b style=&quot;forced-color-adjust: none; color: rgb(0, 0, 0); font-style: normal; font-variant-ligatures: normal; font-variant-caps: normal; letter-spacing: normal; orphans: 2; text-align: left; text-indent: 0px; text-transform: none; widows: 2; word-spacing: 0px; -webkit-text-stroke-width: 0px; white-space: normal; background-color: initial; text-decoration-thickness: initial; text-decoration-style: initial; text-decoration-color: initial;&quot;&gt;&lt;font face=&quot;Helvetica&quot; style=&quot;&quot;&gt;Object Type:&lt;/font&gt;&lt;/b&gt;&lt;span style=&quot;forced-color-adjust: none; color: rgb(0, 0, 0); font-style: normal; font-variant-ligatures: normal; font-variant-caps: normal; font-weight: 400; letter-spacing: normal; orphans: 2; text-align: left; text-indent: 0px; text-transform: none; widows: 2; word-spacing: 0px; -webkit-text-stroke-width: 0px; white-space: normal; background-color: initial; text-decoration-thickness: initial; text-decoration-style: initial; text-decoration-color: initial;&quot;&gt;&lt;font face=&quot;Helvetica&quot; style=&quot;&quot;&gt;&amp;nbsp;CSV Files&lt;/font&gt;&lt;br style=&quot;forced-color-adjust: none;&quot;&gt;&lt;/span&gt;&lt;/font&gt;&lt;div&gt;&lt;br&gt;&lt;/div&gt;" style="text;html=1;align=center;verticalAlign=middle;whiteSpace=wrap;rounded=0;" parent="1" vertex="1">
          <mxGeometry x="-432.5" y="260" width="135" height="20" as="geometry" />
        </mxCell>
        <mxCell id="9Kl_Pf7hAqppmfp9x2_W-100" value="" style="html=1;verticalLabelPosition=bottom;align=center;labelBackgroundColor=#ffffff;verticalAlign=top;strokeWidth=2;strokeColor=#d79b00;shadow=0;dashed=0;shape=mxgraph.ios7.icons.data;fillColor=#ffe6cc;" parent="1" vertex="1">
          <mxGeometry x="-180" y="52" width="40" height="40" as="geometry" />
        </mxCell>
        <mxCell id="9Kl_Pf7hAqppmfp9x2_W-101" value="&lt;font style=&quot;font-size: 10px;&quot;&gt;Store procedure&lt;/font&gt;" style="text;html=1;align=center;verticalAlign=middle;whiteSpace=wrap;rounded=0;" parent="1" vertex="1">
          <mxGeometry x="-205" y="25" width="90" height="30" as="geometry" />
        </mxCell>
        <mxCell id="9Kl_Pf7hAqppmfp9x2_W-104" value="&lt;font style=&quot;font-size: 10px;&quot;&gt;Raw Data&lt;/font&gt;" style="text;html=1;align=center;verticalAlign=middle;whiteSpace=wrap;rounded=0;" parent="1" vertex="1">
          <mxGeometry x="-195" y="100" width="70" height="30" as="geometry" />
        </mxCell>
        <mxCell id="9Kl_Pf7hAqppmfp9x2_W-105" value="&lt;font style=&quot;font-size: 10px;&quot;&gt;Cleaned, Standardized Data&lt;/font&gt;" style="text;html=1;align=center;verticalAlign=middle;whiteSpace=wrap;rounded=0;" parent="1" vertex="1">
          <mxGeometry x="30" y="102" width="60" height="30" as="geometry" />
        </mxCell>
        <mxCell id="9Kl_Pf7hAqppmfp9x2_W-106" value="" style="html=1;verticalLabelPosition=bottom;align=center;labelBackgroundColor=#ffffff;verticalAlign=top;strokeWidth=2;strokeColor=#666666;shadow=0;dashed=0;shape=mxgraph.ios7.icons.data;fillColor=#f5f5f5;fontColor=#333333;" parent="1" vertex="1">
          <mxGeometry x="40" y="52" width="40" height="40" as="geometry" />
        </mxCell>
        <mxCell id="9Kl_Pf7hAqppmfp9x2_W-107" value="&lt;font style=&quot;font-size: 10px;&quot;&gt;Store procedure&lt;/font&gt;" style="text;html=1;align=center;verticalAlign=middle;whiteSpace=wrap;rounded=0;" parent="1" vertex="1">
          <mxGeometry x="15" y="25" width="90" height="30" as="geometry" />
        </mxCell>
        <mxCell id="9Kl_Pf7hAqppmfp9x2_W-108" value="&lt;div style=&quot;text-align: center;&quot;&gt;&lt;b style=&quot;font-size: 8px; background-color: initial; color: light-dark(rgb(0, 0, 0), rgb(255, 255, 255));&quot;&gt;ObjectType:&lt;/b&gt;&lt;span style=&quot;font-size: 8px; background-color: initial; color: light-dark(rgb(0, 0, 0), rgb(255, 255, 255));&quot;&gt;&amp;nbsp;Tables&lt;/span&gt;&lt;/div&gt;&lt;div style=&quot;text-align: center;&quot;&gt;&lt;span style=&quot;font-size: 8px; background-color: initial; color: light-dark(rgb(0, 0, 0), rgb(255, 255, 255));&quot;&gt;&lt;br&gt;&lt;/span&gt;&lt;/div&gt;&lt;font style=&quot;&quot;&gt;&lt;span style=&quot;font-size: 8px; background-color: initial;&quot;&gt;&lt;div style=&quot;text-align: center;&quot;&gt;&lt;b style=&quot;background-color: initial; color: light-dark(rgb(0, 0, 0), rgb(255, 255, 255));&quot;&gt;Load&lt;/b&gt;&lt;span style=&quot;background-color: initial; color: light-dark(rgb(0, 0, 0), rgb(255, 255, 255));&quot;&gt;:&amp;nbsp;&lt;/span&gt;&lt;/div&gt;&lt;/span&gt;&lt;/font&gt;&lt;div&gt;&lt;ul&gt;&lt;li&gt;&lt;span style=&quot;font-size: 8px; background-color: transparent; color: light-dark(rgb(0, 0, 0), rgb(255, 255, 255));&quot;&gt;Full Load&lt;/span&gt;&lt;/li&gt;&lt;li&gt;&lt;span style=&quot;font-size: 8px; background-color: transparent; color: light-dark(rgb(0, 0, 0), rgb(255, 255, 255));&quot;&gt;Truncate &amp;amp; Insert&lt;/span&gt;&lt;/li&gt;&lt;/ul&gt;&lt;/div&gt;&lt;div style=&quot;text-align: center;&quot;&gt;&lt;font style=&quot;font-size: 8px;&quot;&gt;&lt;b style=&quot;background-color: initial;&quot;&gt;Transformations&lt;/b&gt;&lt;span style=&quot;&quot;&gt;:&lt;/span&gt;&lt;/font&gt;&lt;/div&gt;&lt;div&gt;&lt;ul&gt;&lt;li&gt;&lt;span style=&quot;background-color: initial; font-size: 8px; color: light-dark(rgb(0, 0, 0), rgb(255, 255, 255));&quot;&gt;Data Cleansing&lt;/span&gt;&lt;/li&gt;&lt;li&gt;&lt;span style=&quot;background-color: initial; font-size: 8px; color: light-dark(rgb(0, 0, 0), rgb(255, 255, 255));&quot;&gt;Data Standrization&lt;/span&gt;&lt;/li&gt;&lt;li&gt;&lt;span style=&quot;background-color: initial; font-size: 8px; color: light-dark(rgb(0, 0, 0), rgb(255, 255, 255));&quot;&gt;Data Normalization&lt;/span&gt;&lt;/li&gt;&lt;li&gt;&lt;span style=&quot;background-color: initial; font-size: 8px; color: light-dark(rgb(0, 0, 0), rgb(255, 255, 255));&quot;&gt;Derived Columns&amp;nbsp;&lt;/span&gt;&lt;/li&gt;&lt;li&gt;&lt;span style=&quot;font-size: 8px; background-color: initial; color: light-dark(rgb(0, 0, 0), rgb(255, 255, 255));&quot;&gt;Data Enrichment&amp;nbsp;&lt;/span&gt;&lt;/li&gt;&lt;/ul&gt;&lt;/div&gt;" style="text;html=1;align=left;verticalAlign=middle;whiteSpace=wrap;rounded=0;" parent="1" vertex="1">
          <mxGeometry x="-10" y="127.5" width="150" height="225" as="geometry" />
        </mxCell>
        <mxCell id="9Kl_Pf7hAqppmfp9x2_W-109" value="&lt;font style=&quot;font-size: 8px;&quot;&gt;&lt;b style=&quot;text-align: left; background-color: initial;&quot;&gt;Object Type:&lt;/b&gt;&lt;span style=&quot;text-align: left; background-color: initial;&quot;&gt;&amp;nbsp;Tables&lt;br&gt;&lt;br&gt;&lt;/span&gt;&lt;b style=&quot;text-align: left; background-color: initial;&quot;&gt;Load&lt;/b&gt;&lt;span style=&quot;text-align: left; background-color: initial;&quot;&gt;:&amp;nbsp;&lt;br&gt;&lt;/span&gt;&lt;/font&gt;&lt;ul style=&quot;text-align: left; border-color: var(--border-color);&quot;&gt;&lt;li style=&quot;border-color: var(--border-color);&quot;&gt;&lt;font style=&quot;font-size: 8px;&quot;&gt;Batch Processing&lt;/font&gt;&lt;/li&gt;&lt;li style=&quot;border-color: var(--border-color);&quot;&gt;&lt;font style=&quot;font-size: 8px;&quot;&gt;Full Load&lt;/font&gt;&lt;/li&gt;&lt;li style=&quot;border-color: var(--border-color);&quot;&gt;&lt;font style=&quot;font-size: 8px;&quot;&gt;Truncate &amp;amp; Insert&lt;/font&gt;&lt;/li&gt;&lt;/ul&gt;&lt;span style=&quot;text-align: left; background-color: initial;&quot;&gt;&lt;font style=&quot;&quot;&gt;&lt;font style=&quot;font-size: 8px;&quot;&gt;No&amp;nbsp;&lt;b style=&quot;&quot;&gt;Transformations&lt;/b&gt;&lt;/font&gt;&lt;br&gt;&lt;/font&gt;&lt;/span&gt;" style="text;html=1;align=center;verticalAlign=middle;whiteSpace=wrap;rounded=0;" parent="1" vertex="1">
          <mxGeometry x="-220" y="130" width="120" height="155" as="geometry" />
        </mxCell>
        <mxCell id="9Kl_Pf7hAqppmfp9x2_W-110" value="" style="html=1;verticalLabelPosition=bottom;align=center;labelBackgroundColor=#ffffff;verticalAlign=top;strokeWidth=2;strokeColor=#d6b656;shadow=0;dashed=0;shape=mxgraph.ios7.icons.data;fillColor=#fff2cc;" parent="1" vertex="1">
          <mxGeometry x="250" y="52" width="40" height="40" as="geometry" />
        </mxCell>
        <mxCell id="9Kl_Pf7hAqppmfp9x2_W-111" value="&lt;div style=&quot;text-align: center;&quot;&gt;&lt;b style=&quot;font-size: 8px; background-color: initial; color: light-dark(rgb(0, 0, 0), rgb(255, 255, 255));&quot;&gt;Object Type:&lt;/b&gt;&lt;span style=&quot;font-size: 8px; background-color: initial; color: light-dark(rgb(0, 0, 0), rgb(255, 255, 255));&quot;&gt;&amp;nbsp;Views&lt;/span&gt;&lt;/div&gt;&lt;font face=&quot;Helvetica&quot; style=&quot;&quot;&gt;&lt;div style=&quot;text-align: center;&quot;&gt;&lt;span style=&quot;font-size: 8px;&quot;&gt;&lt;br&gt;&lt;/span&gt;&lt;/div&gt;&lt;span style=&quot;font-size: 8px; background-color: initial;&quot;&gt;&lt;div style=&quot;text-align: center;&quot;&gt;&lt;span style=&quot;background-color: initial; color: light-dark(rgb(0, 0, 0), rgb(255, 255, 255));&quot;&gt;No&amp;nbsp;&lt;/span&gt;&lt;b style=&quot;background-color: initial; color: light-dark(rgb(0, 0, 0), rgb(255, 255, 255));&quot;&gt;Load&lt;/b&gt;&lt;/div&gt;&lt;br&gt;&lt;div style=&quot;text-align: center;&quot;&gt;&lt;b style=&quot;background-color: initial; color: light-dark(rgb(0, 0, 0), rgb(255, 255, 255));&quot;&gt;Transformations&lt;/b&gt;&lt;span style=&quot;background-color: transparent; color: light-dark(rgb(0, 0, 0), rgb(255, 255, 255));&quot;&gt;:&lt;/span&gt;&lt;/div&gt;&lt;/span&gt;&lt;/font&gt;&lt;ul style=&quot;&quot;&gt;&lt;li&gt;&lt;font face=&quot;Helvetica&quot; style=&quot;font-size: 8px;&quot;&gt;Data Integrations&lt;/font&gt;&lt;/li&gt;&lt;li&gt;&lt;font face=&quot;Helvetica&quot; style=&quot;font-size: 8px;&quot;&gt;Aggregations&lt;/font&gt;&lt;/li&gt;&lt;/ul&gt;&lt;b style=&quot;background-color: initial;&quot;&gt;&lt;div style=&quot;text-align: center;&quot;&gt;&lt;b style=&quot;background-color: initial; color: light-dark(rgb(0, 0, 0), rgb(255, 255, 255));&quot;&gt;&lt;font face=&quot;Helvetica&quot; style=&quot;font-size: 8px;&quot;&gt;Data Model:&lt;/font&gt;&lt;/b&gt;&lt;/div&gt;&lt;/b&gt;&lt;div&gt;&lt;ul&gt;&lt;li&gt;&lt;span style=&quot;background-color: transparent; color: light-dark(rgb(0, 0, 0), rgb(255, 255, 255));&quot;&gt;&lt;font style=&quot;font-size: 8px;&quot; face=&quot;Helvetica&quot;&gt;Star Schema&lt;/font&gt;&lt;/span&gt;&lt;/li&gt;&lt;/ul&gt;&lt;/div&gt;" style="text;html=1;align=left;verticalAlign=middle;whiteSpace=wrap;rounded=0;" parent="1" vertex="1">
          <mxGeometry x="190" y="80" width="160" height="287.5" as="geometry" />
        </mxCell>
        <mxCell id="9Kl_Pf7hAqppmfp9x2_W-112" style="edgeStyle=orthogonalEdgeStyle;rounded=0;orthogonalLoop=1;jettySize=auto;html=1;exitX=1;exitY=0.5;exitDx=0;exitDy=0;entryX=1;entryY=0.75;entryDx=0;entryDy=0;" parent="1" source="9Kl_Pf7hAqppmfp9x2_W-10" target="9Kl_Pf7hAqppmfp9x2_W-10" edge="1">
          <mxGeometry relative="1" as="geometry" />
        </mxCell>
        <mxCell id="9Kl_Pf7hAqppmfp9x2_W-114" value="" style="html=1;shadow=0;dashed=0;align=center;verticalAlign=middle;shape=mxgraph.arrows2.arrow;dy=0.6;dx=40;notch=0;" parent="1" vertex="1">
          <mxGeometry x="-325" y="172.5" width="120" height="27.5" as="geometry" />
        </mxCell>
        <mxCell id="9Kl_Pf7hAqppmfp9x2_W-117" value="" style="html=1;shadow=0;dashed=0;align=center;verticalAlign=middle;shape=mxgraph.arrows2.arrow;dy=0.6;dx=40;notch=0;" parent="1" vertex="1">
          <mxGeometry x="-100" y="172.5" width="90" height="27.5" as="geometry" />
        </mxCell>
        <mxCell id="9Kl_Pf7hAqppmfp9x2_W-119" value="" style="html=1;shadow=0;dashed=0;align=center;verticalAlign=middle;shape=mxgraph.arrows2.arrow;dy=0.6;dx=40;notch=0;" parent="1" vertex="1">
          <mxGeometry x="120" y="172.5" width="90" height="27.5" as="geometry" />
        </mxCell>
      </root>
    </mxGraphModel>
  </diagram>
</mxfile>
